<svg width="112" height="14" viewBox="0 0 112 14" fill="none" xmlns="http://www.w3.org/2000/svg">
<g clip-path="url(#clip0)">
<path fill-rule="evenodd" clip-rule="evenodd" d="M59.0475 14.0114V10.8115H69.6611C70.1096 10.8115 70.6889 10.7433 71.0065 10.3798C71.2687 10.0628 71.4022 9.65673 71.3803 9.24374V8.54318H62.9716C62.2394 8.55842 61.509 8.46399 60.804 8.26295C60.2505 8.104 59.7395 7.82052 59.3091 7.43363C58.923 7.06921 58.6338 6.61207 58.4682 6.10444C58.2916 5.54923 58.2058 4.96849 58.2141 4.38521C58.1551 3.20911 58.5582 2.05721 59.3353 1.18153C60.2658 0.223457 61.7047 3.2537e-05 62.9604 3.2537e-05H71.5559C72.043 -0.0112305 72.5294 0.0435327 73.0022 0.162867C73.3771 0.251864 73.7209 0.443053 73.9963 0.715748C74.2439 0.985948 74.4133 1.32005 74.4859 1.6814C74.5725 2.11245 74.6126 2.55179 74.6055 2.99165V9.2854C74.6096 9.90895 74.5201 10.5295 74.3401 11.1258C74.166 11.6932 73.864 12.2117 73.4581 12.6406C73.0188 13.0876 72.4845 13.4269 71.896 13.6327C71.1869 13.8793 70.4405 13.9972 69.691 13.9811L59.0475 14.0114ZM21.7989 12.9586C21.0813 12.118 20.9281 10.8607 20.9281 9.79284V3.2537e-05H24.1757V9.38386C24.1757 10.3571 24.6205 10.8077 25.5847 10.8077H32.9395V14.0114H24.7886C23.7347 14.0114 22.5276 13.8107 21.7989 12.97V12.9586ZM13.1622 5.45689V4.74117C13.1846 4.32814 13.051 3.92196 12.7885 3.60512C12.4746 3.22643 11.8916 3.17342 11.4431 3.17342H0.799574V3.2537e-05H11.4543C12.205 -0.0165381 12.9528 0.101404 13.663 0.348423C14.2483 0.55782 14.7787 0.899736 15.2139 1.34815C15.6198 1.77696 15.9218 2.29553 16.0959 2.86289C16.276 3.45917 16.3655 4.07975 16.3613 4.70331V11.0084C16.3685 11.4483 16.3284 11.8876 16.2417 12.3187C16.1693 12.6801 15.9999 13.0142 15.7521 13.2843C15.4825 13.5521 15.1469 13.7417 14.7804 13.8334C14.3076 13.9528 13.8212 14.0076 13.3341 13.9962H4.73858C3.47167 14.0114 2.03659 13.7728 1.12097 12.8147C0.343927 11.9391 -0.0591916 10.7872 -0.000185619 9.61107C-0.00846098 9.02779 0.0773798 8.44706 0.253944 7.89184C0.420609 7.38382 0.711116 6.92664 1.09855 6.56265C1.52884 6.17565 2.03985 5.89216 2.59343 5.73333C3.2972 5.53271 4.02632 5.43829 4.75726 5.4531L13.1622 5.45689ZM50.5678 5.45689V4.74117C50.5898 4.32819 50.4562 3.92215 50.1941 3.60512C49.8802 3.22643 49.2972 3.17342 48.8487 3.17342H38.2052V3.2537e-05H48.8599C49.6094 -0.0160913 50.3558 0.101845 51.0649 0.348423C51.6501 0.55782 52.1806 0.899736 52.6158 1.34815C53.0217 1.77696 53.3236 2.29553 53.4978 2.86289C53.6778 3.45919 53.7673 4.07975 53.7631 4.70331V11.0084C53.7703 11.4483 53.7302 11.8876 53.6435 12.3187C53.571 12.68 53.4016 13.0141 53.1539 13.2843C52.8843 13.5521 52.5488 13.7417 52.1823 13.8334C51.7095 13.9527 51.2231 14.0075 50.736 13.9962H42.1404C40.8847 13.9962 39.4459 13.7728 38.534 12.8147C37.757 11.9391 37.3539 10.7872 37.4129 9.61107C37.4045 9.02779 37.4904 8.44705 37.667 7.89184C37.8283 7.38578 38.1123 6.92879 38.4929 6.56265C38.9233 6.17576 39.4343 5.89228 39.9878 5.73333C40.6928 5.53234 41.4232 5.43791 42.1554 5.4531L50.5678 5.45689ZM82.3003 8.56968V9.23617C82.2776 9.64926 82.4113 10.0556 82.6741 10.3722C82.9917 10.7282 83.5785 10.7926 84.0195 10.7926H94.8237V14.0114H84.0344C83.2799 14.0298 82.5282 13.9118 81.8145 13.663C81.235 13.4506 80.7101 13.109 80.2785 12.6633C79.8729 12.2342 79.571 11.7157 79.3965 11.1485C79.2146 10.5475 79.1251 9.92163 79.1312 9.29297V4.71467C79.1272 4.09113 79.2167 3.47059 79.3965 2.87426C79.5708 2.30694 79.8727 1.7884 80.2785 1.35951C80.709 0.909724 81.234 0.564116 81.8145 0.348423C82.5282 0.0996067 83.2799 -0.0183672 84.0344 3.2537e-05H90.7352C91.9909 3.2537e-05 93.4297 0.21967 94.3528 1.16638C95.2049 2.04115 95.474 3.21129 95.474 4.40793C95.5051 4.9704 95.4216 5.53333 95.2287 6.06168C95.0358 6.59004 94.7376 7.07251 94.3528 7.47907C93.426 8.38413 91.9161 8.5659 90.6903 8.5659L82.3003 8.56968ZM112 3.2537e-05V3.18856H104.641C103.681 3.18856 103.236 3.64299 103.236 4.61242V14.0114H99.9885V4.20723C99.9885 3.13555 100.157 1.87074 100.878 1.04142C101.599 0.212096 102.814 3.2537e-05 103.868 3.2537e-05H112ZM13.1622 8.18721H4.80211C4.42839 8.18721 3.8267 8.23265 3.53146 8.52046C3.4139 8.64615 3.32332 8.79517 3.26543 8.95811C3.20754 9.12105 3.1836 9.29438 3.19512 9.46717C3.1863 9.64377 3.21215 9.82039 3.27117 9.98679C3.33019 10.1532 3.4212 10.3061 3.53894 10.4366C3.88701 10.7019 4.31964 10.8274 4.75353 10.7888H12.7324C13.0277 10.7888 13.1622 10.713 13.1622 10.4101V8.18721ZM50.5678 8.18721H42.2077C41.834 8.18721 41.2323 8.23265 40.9371 8.52046C40.8204 8.64527 40.7304 8.79304 40.6726 8.9546C40.6147 9.11616 40.5902 9.28805 40.6007 9.45959C40.5919 9.6362 40.6177 9.81281 40.6768 9.97922C40.7358 10.1456 40.8268 10.2985 40.9445 10.429C41.2926 10.6943 41.7252 10.8198 42.1591 10.7812H50.138C50.4333 10.7812 50.5678 10.7055 50.5678 10.4025V8.18721ZM82.3003 5.86208H90.6343C91.0342 5.86208 91.6396 5.81664 91.9423 5.51369C92.0618 5.38811 92.1544 5.23884 92.2142 5.07527C92.274 4.91169 92.2998 4.73735 92.2899 4.56319C92.2985 4.37836 92.2698 4.19368 92.2056 4.02048C92.1413 3.84727 92.0428 3.68918 91.9161 3.55589C91.5717 3.27857 91.1365 3.14331 90.6978 3.1772H84.0344C83.5859 3.1772 83.0067 3.24537 82.6927 3.6089C82.4306 3.92593 82.297 4.33197 82.319 4.74496V5.88102L82.3003 5.86208ZM63.0351 5.81285H71.3803V3.59754C71.3803 3.29081 71.242 3.21886 70.9505 3.21886H62.9865C62.5526 3.18028 62.12 3.30572 61.7719 3.57104C61.6549 3.70185 61.5645 3.85488 61.5061 4.02127C61.4478 4.18767 61.4225 4.36413 61.4318 4.54047C61.4214 4.71201 61.4458 4.8839 61.5037 5.04546C61.5615 5.20702 61.6516 5.3548 61.7682 5.47961C62.0634 5.7712 62.6539 5.81285 63.0388 5.81285H63.0351Z" fill="white"/>
</g>
<defs>
<clipPath id="clip0">
<rect width="112" height="14" fill="white"/>
</clipPath>
</defs>
</svg>
