<svg width="54" height="54" viewBox="0 0 54 54" fill="none" xmlns="http://www.w3.org/2000/svg">
<path d="M51.7784 30.7819H51.8784V30.6819V3.87207C51.8784 3.05477 51.2138 2.39009 50.3965 2.39009H7.59917C7.19653 2.39009 6.87002 2.06366 6.87002 1.66094C6.87002 1.2582 7.19644 0.931787 7.59917 0.931787H50.3965C52.0177 0.931787 53.3367 2.25095 53.3368 3.87207V40.3555C53.3368 41.4016 52.7735 42.3776 51.8672 42.9019L51.9173 42.9884L51.8672 42.9019C51.7521 42.9685 51.6266 43 51.5028 43C51.2507 43 51.006 42.8693 50.8709 42.6359C50.6693 42.2873 50.7885 41.8413 51.137 41.6396C51.5943 41.3751 51.8784 40.8831 51.8784 40.3555V32.3402V32.2402H51.7784H47.0799C46.6772 32.2402 46.3507 31.9138 46.3507 31.511C46.3507 31.1083 46.6771 30.7819 47.0799 30.7819H51.7784Z" fill="#F03145" stroke="#2E2E2E" stroke-width="0.2"/>
<path d="M47.0796 39.9793C45.4584 39.9793 44.1393 38.6602 44.1393 37.0391C44.1393 35.4179 45.4584 34.0988 47.0796 34.0988C48.7008 34.0988 50.0199 35.4179 50.0199 37.0391C50.0199 38.6602 48.7008 39.9793 47.0796 39.9793ZM48.5616 37.0392C48.5616 36.2219 47.8969 35.5572 47.0796 35.5572C46.2623 35.5572 45.5976 36.2219 45.5976 37.0392C45.5976 37.8565 46.2623 38.5211 47.0796 38.5211C47.8969 38.5211 48.5616 37.8565 48.5616 37.0392Z" fill="#F03145" stroke="#2E2E2E" stroke-width="0.2"/>
<path d="M2.58017 32.24H2.48017V32.34V40.3553C2.48017 41.1726 3.14486 41.8373 3.96216 41.8373H18.3345C18.7372 41.8373 19.0637 42.1636 19.0637 42.5665C19.0637 42.9693 18.7372 43.2956 18.3344 43.2956H3.96216C2.34094 43.2956 1.02188 41.9764 1.02188 40.3553V3.87183C1.02188 2.2507 2.34094 0.931543 3.96216 0.931543H8.38442C8.78716 0.931543 9.11357 1.25796 9.11357 1.66069C9.11357 2.06342 8.78716 2.38984 8.38442 2.38984H3.96216C3.14486 2.38984 2.48017 3.05453 2.48017 3.87183V30.6817V30.7817H2.58017H22.7567C23.1593 30.7817 23.4858 31.1081 23.4858 31.5109C23.4858 31.9137 23.1594 32.24 22.7567 32.24H2.58017Z" fill="#F03145" stroke="#2E2E2E" stroke-width="0.2"/>
<path d="M40.0705 39.7387V39.8131L40.1418 39.8345L47.455 42.0285C49.6512 42.6873 51.1263 44.6698 51.1263 46.9627V51.4112C51.1263 52.4227 50.3032 53.2459 49.2916 53.2459H44.1C44.3151 53.0758 44.4531 52.8124 44.4531 52.5168C44.4531 52.2211 44.3151 51.9578 44.0999 51.7876H49.2916C49.4992 51.7876 49.668 51.6189 49.668 51.4112V46.9627C49.668 45.3195 48.61 43.8975 47.0362 43.4253L47.0074 43.5211L47.0362 43.4253L39.2486 41.089L39.2345 41.0848H39.2199H30.6187H30.604L30.59 41.089L22.8025 43.4253L22.8312 43.5211L22.8025 43.4253C21.2287 43.8975 20.1707 45.3195 20.1707 46.9627V51.4112C20.1707 51.619 20.3396 51.7876 20.5471 51.7876H25.7985H25.8985V51.6876V49.2001C25.8985 48.7973 26.225 48.4709 26.6276 48.4709C27.0303 48.4709 27.3568 48.7973 27.3568 49.2001V51.6876V51.7876H27.4568H42.2819V52.5168C42.2819 52.8125 42.4199 53.0758 42.6351 53.2459H20.5469C19.5354 53.2459 18.7122 52.4228 18.7122 51.4112V46.9627C18.7122 44.6698 20.1872 42.6873 22.3833 42.0285L29.6966 39.8345L29.7678 39.8131V39.7387V37.1453V37.0821L29.7107 37.055C29.1256 36.7769 28.5757 36.4211 28.0772 35.9936C26.7434 34.8492 25.8615 33.2623 25.5942 31.5252L24.6727 25.5345L24.6638 25.4771L24.6096 25.4564C23.7476 25.1262 23.1344 24.2902 23.1344 23.3142C23.1344 22.7016 23.3728 22.1261 23.806 21.693L25.4208 20.0783L25.4375 20.0616L25.4449 20.0392L26.5862 16.6153C26.5862 16.6153 26.5862 16.6153 26.5862 16.6153C27.2337 14.6731 28.9534 13.3184 30.958 13.1185L31.0151 13.1128L31.039 13.0606C31.329 12.4278 31.9683 11.9875 32.7081 11.9875H37.1304C37.8702 11.9875 38.5096 12.4278 38.7995 13.0606L38.8234 13.1128L38.8805 13.1185C40.8851 13.3184 42.6048 14.6731 43.2523 16.6153L44.3935 20.0392L44.401 20.0616L44.4177 20.0783L46.0032 21.6637V21.6638L46.0325 21.6931C46.4657 22.1262 46.704 22.7016 46.704 23.3142C46.704 24.2902 46.0908 25.1261 45.2288 25.4564L45.1745 25.4771L45.1657 25.5345L44.2441 31.5252C43.9769 33.2622 43.0952 34.8492 41.7612 35.9936C41.2627 36.4212 40.7127 36.7771 40.1276 37.055L40.0705 37.0821V37.1453V39.7387ZM43.524 51.5876H42.4819V49.2001C42.4819 48.7973 42.8084 48.4709 43.211 48.4709C43.6137 48.4709 43.9402 48.7973 43.9402 49.2001V51.6858C43.815 51.623 43.6736 51.5876 43.524 51.5876ZM42.4819 51.7876H43.524C43.9266 51.7876 44.2531 52.114 44.2531 52.5168C44.2531 52.9196 43.9267 53.2459 43.524 53.2459H43.211C42.8084 53.2459 42.4819 52.9196 42.4819 52.5168V51.7876ZM24.8373 22.7242L24.8373 22.7242C24.68 22.8816 24.593 23.0915 24.593 23.3141C24.593 23.7742 24.9671 24.1485 25.4273 24.1485H44.3115V24.1486H44.4115C44.8716 24.1486 45.2458 23.7745 45.2458 23.3142C45.2458 23.0944 45.1567 22.8797 45.0013 22.7242L43.2482 20.9712C43.1682 20.8912 43.1079 20.7936 43.0721 20.6862L41.8688 17.0767C41.4429 15.7987 40.3695 14.8755 39.0847 14.6217L38.9653 14.5981V14.7198V18.2444C38.9653 18.6472 38.6388 18.9736 38.2361 18.9736C37.8335 18.9736 37.507 18.6473 37.507 18.2444V13.8222C37.507 13.6144 37.3381 13.4457 37.1306 13.4457H32.7083C32.5007 13.4457 32.3319 13.6145 32.3319 13.8222V18.2444C32.3319 18.6472 32.0055 18.9736 31.6027 18.9736C31.2001 18.9736 30.8736 18.6472 30.8736 18.2444V14.7197V14.598L30.7542 14.6216C29.4694 14.8754 28.3958 15.7986 27.9698 17.0766L26.7666 20.6861L26.7666 20.6861C26.7309 20.7934 26.6705 20.891 26.5904 20.9712L24.8373 22.7242ZM38.6126 37.7063V37.5829L38.4918 37.6084C37.9938 37.7139 37.4828 37.7681 36.9675 37.7681C36.5646 37.7681 36.2382 37.4417 36.2383 37.039V37.039C36.2383 36.6361 36.5648 36.3098 36.9675 36.3098C39.9023 36.3098 42.3568 34.2038 42.8031 31.3033L43.6617 25.7222L43.6794 25.607H43.5628H26.276H26.1595L26.1772 25.7222L27.0359 31.3032C27.4821 34.2039 29.9367 36.3098 32.8715 36.3098H33.814C34.2166 36.3098 34.5431 36.6361 34.5431 37.039C34.5431 37.4418 34.2167 37.7681 33.814 37.7681H32.8715C32.3559 37.7681 31.8452 37.7139 31.3471 37.6084L31.2264 37.5829V37.7063V39.5264V39.6264H31.3264H38.5126H38.6126V39.5264V37.7063Z" fill="#F03145" stroke="#2E2E2E" stroke-width="0.2"/>
<path d="M4.33846 37.0391C4.33846 35.4179 5.65752 34.0988 7.27875 34.0988H15.0177C16.6389 34.0988 17.958 35.4179 17.958 37.0391C17.958 38.6602 16.6389 39.9793 15.0177 39.9793H7.27875C5.65752 39.9793 4.33846 38.6602 4.33846 37.0391ZM15.0176 38.521C15.8349 38.521 16.4996 37.8564 16.4996 37.0391C16.4996 36.2219 15.8349 35.5572 15.0177 35.5571H7.27875C6.46145 35.5571 5.79676 36.2218 5.79676 37.0391C5.79676 37.8564 6.46145 38.521 7.27875 38.521H15.0176Z" fill="#F03145" stroke="#2E2E2E" stroke-width="0.2"/>
<path d="M12.0782 11.3346V11.2346H11.9782H8.93795C8.23111 11.2346 7.65597 10.6594 7.65597 9.95259V6.63589C7.65597 5.92905 8.23111 5.35391 8.93795 5.35391H16.6769C17.3838 5.35391 17.9589 5.92905 17.9589 6.63589V7.46504V7.56504H18.0589H45.9743C46.3769 7.56504 46.7034 7.89137 46.7034 8.29419V17.1386C46.7034 17.5414 46.377 17.8678 45.9743 17.8678C45.5716 17.8678 45.2451 17.5414 45.2451 17.1386V9.12334V9.02334H45.1451H18.0589H17.9589V9.12334V9.95249C17.9589 10.6593 17.3838 11.2345 16.6769 11.2345H13.6365H13.5365V11.3345V13.3095V13.3713L13.5918 13.3989L17.2502 15.2281L17.2502 15.2281C17.6875 15.4466 17.9588 15.8857 17.9588 16.3747V16.7971C17.9588 17.2861 17.6875 17.7252 17.25 17.9437L17.25 17.9438L13.5919 19.7728L13.5366 19.8005V19.8623V21.8374V21.9374H13.6366H16.6769C17.3838 21.9374 17.9589 22.5125 17.9589 23.2194V24.0485V24.1485H18.0589H20.5465C20.9491 24.1485 21.2756 24.4749 21.2756 24.8777C21.2756 25.2805 20.9492 25.6068 20.5465 25.6068H18.0589H17.9589V25.7068V26.536C17.9589 27.2428 17.3838 27.818 16.6769 27.818H8.93795C8.23111 27.818 7.65597 27.2428 7.65597 26.536V23.2193C7.65597 22.5124 8.23111 21.9373 8.93795 21.9373H11.9783H12.0783V21.8373V19.8625V19.8007L12.0231 19.773L8.36471 17.9439L8.36468 17.9439C7.92741 17.7254 7.65607 17.2863 7.65607 16.7973V16.3749C7.65607 15.8859 7.9274 15.4468 8.36488 15.2282L8.36492 15.2282L12.023 13.3991L12.0782 13.3715V13.3097V11.3346ZM16.5005 23.4956V23.3956H16.4005H9.21437H9.11437V23.4956V26.2595V26.3595H9.21437H16.4005H16.5005V26.2595V23.4956ZM16.5005 16.5457V16.4839L16.4452 16.4562L12.8521 14.6597L12.8074 14.6373L12.7627 14.6597L9.16955 16.4562L9.11427 16.4839V16.5457V16.6263V16.6881L9.16955 16.7157L12.7627 18.5123L12.8074 18.5347L12.8521 18.5123L16.4452 16.7157L16.5005 16.6881V16.6263V16.5457ZM16.4005 9.77617H16.5005V9.67617V6.9122V6.8122H16.4005H9.21437H9.11437V6.9122V9.67617V9.77617H9.21437H12.8074H16.4005Z" fill="#F03145" stroke="#2E2E2E" stroke-width="0.2"/>
<path d="M22.7571 39.9793C21.1359 39.9793 19.8168 38.6602 19.8168 37.0391C19.8168 35.4179 21.1359 34.0988 22.7571 34.0988C24.3783 34.0988 25.6974 35.4179 25.6974 37.0391C25.6974 38.6602 24.3783 39.9793 22.7571 39.9793ZM22.7571 38.521C23.5744 38.521 24.2391 37.8564 24.2391 37.0391C24.2391 36.2219 23.5744 35.5571 22.7571 35.5571C21.9398 35.5571 21.2751 36.2218 21.2751 37.0391C21.2751 37.8564 21.9398 38.521 22.7571 38.521Z" fill="#F03145" stroke="#2E2E2E" stroke-width="0.2"/>
</svg>
