<svg width="54" height="52" viewBox="0 0 54 52" fill="none" xmlns="http://www.w3.org/2000/svg">
<path d="M4.41229 37.6972H5.90735V39.1771H4.41229V37.6972Z" fill="#F03145" stroke="#2E2E2E" stroke-width="0.2"/>
<path d="M7.8027 37.6972H9.29777V39.1771H7.8027V37.6972Z" fill="#F03145" stroke="#2E2E2E" stroke-width="0.2"/>
<path d="M24.753 39.3769H26.248V40.8563H24.753V39.3769Z" fill="#F03145" stroke="#2E2E2E" stroke-width="0.2"/>
<path d="M21.3625 39.3769H22.8576V40.8563H21.3625V39.3769Z" fill="#F03145" stroke="#2E2E2E" stroke-width="0.2"/>
<path d="M4.41229 24.2606H5.90735V25.7403H4.41229V24.2606Z" fill="#F03145" stroke="#2E2E2E" stroke-width="0.2"/>
<path d="M7.8027 24.2606H9.29777V25.7403H7.8027V24.2606Z" fill="#F03145" stroke="#2E2E2E" stroke-width="0.2"/>
<path d="M24.753 25.9403H26.248V27.421H24.753V25.9403Z" fill="#F03145" stroke="#2E2E2E" stroke-width="0.2"/>
<path d="M21.3625 25.9403H22.8576V27.421H21.3625V25.9403Z" fill="#F03145" stroke="#2E2E2E" stroke-width="0.2"/>
<path d="M4.41229 10.8239H5.90735V12.3036H4.41229V10.8239Z" fill="#F03145" stroke="#2E2E2E" stroke-width="0.2"/>
<path d="M7.8027 10.8239H9.29777V12.3036H7.8027V10.8239Z" fill="#F03145" stroke="#2E2E2E" stroke-width="0.2"/>
<path d="M24.753 12.5036H26.248V13.984H24.753V12.5036Z" fill="#F03145" stroke="#2E2E2E" stroke-width="0.2"/>
<path d="M21.3625 12.5036H22.8576V13.984H21.3625V12.5036Z" fill="#F03145" stroke="#2E2E2E" stroke-width="0.2"/>
<path d="M38.8609 13.3433H38.8843L38.9053 13.3329L42.2744 11.6637H50.9262C52.2735 11.6637 53.3688 12.7499 53.3688 14.0831V37.5973C53.3688 38.9301 52.2734 40.0167 50.9262 40.0167H29.7379H29.6379V40.1167V41.7963C29.6379 43.1291 28.5426 44.2157 27.1953 44.2157H3.46447C2.11717 44.2157 1.02188 43.1291 1.02188 41.7963V36.7575C1.02188 35.4244 2.11716 34.3381 3.46447 34.3381H4.312H4.412V34.2381V30.879V30.779H4.312H3.46447C2.11717 30.779 1.02188 29.6924 1.02188 28.3596V23.3208C1.02188 21.9877 2.11716 20.9014 3.46447 20.9014H4.312H4.412V20.8014V17.4423V17.3423H4.312H3.46447C2.11717 17.3423 1.02188 16.2557 1.02188 14.9229V9.88413C1.02188 8.55096 2.11716 7.46475 3.46447 7.46475H27.1953C28.5426 7.46475 29.6379 8.55096 29.6379 9.88413V13.2433V13.3433H29.7379H38.8609ZM6.00706 17.3423H5.90706V17.4423V20.8014V20.9014H6.00706H24.6527H24.7527V20.8014V17.4423V17.3423H24.6527H6.00706ZM6.00706 30.779H5.90706V30.879V34.2381V34.3381H6.00706H24.6527H24.7527V34.2381V30.879V30.779H24.6527H6.00706ZM29.6379 38.4371V38.5371H29.7379H50.9262C51.4482 38.5371 51.8737 38.1159 51.8737 37.5973V19.9617V19.8617H51.7737H31.533V18.3821H51.7737H51.8737V18.2821V14.0831C51.8737 13.5641 51.4482 13.1433 50.9262 13.1433H42.6507H42.6273L42.6063 13.1537L39.2372 14.8229H29.7379H29.6379V14.9229C29.6379 16.2557 28.5426 17.3423 27.1953 17.3423H26.3478H26.2478V17.4423V20.8014V20.9014H26.3478H27.1953C28.5426 20.9014 29.6379 21.9877 29.6379 23.3208V28.3596C29.6379 29.6924 28.5426 30.779 27.1953 30.779H26.3478H26.2478V30.879V34.2381V34.3381H26.3478H27.1953C28.5426 34.3381 29.6379 35.4244 29.6379 36.7575V38.4371ZM2.51694 9.88413V14.9229C2.51694 15.4415 2.94241 15.8627 3.46447 15.8627H27.1953C27.7174 15.8627 28.1428 15.4415 28.1428 14.9229V9.88413C28.1428 9.36512 27.7173 8.94433 27.1953 8.94433H3.46447C2.94244 8.94433 2.51694 9.36512 2.51694 9.88413ZM2.51694 23.3208V28.3596C2.51694 28.8782 2.94241 29.2994 3.46447 29.2994H27.1953C27.7174 29.2994 28.1428 28.8782 28.1428 28.3596V23.3208C28.1428 22.8018 27.7173 22.381 27.1953 22.381H3.46447C2.94244 22.381 2.51694 22.8018 2.51694 23.3208ZM27.1953 42.7361C27.7174 42.7361 28.1428 42.3149 28.1428 41.7963V36.7575C28.1428 36.2385 27.7173 35.8177 27.1953 35.8177H3.46447C2.94244 35.8177 2.51694 36.2385 2.51694 36.7575V41.7963C2.51694 42.3149 2.94241 42.7361 3.46447 42.7361H27.1953Z" fill="#F03145" stroke="#2E2E2E" stroke-width="0.2"/>
<path d="M41.7041 15.0229H49.9794V16.5023H41.7041V15.0229Z" fill="#F03145" stroke="#2E2E2E" stroke-width="0.2"/>
<path d="M33.1279 24.9004H33.0279V25.0004V35.078V35.178H33.1279H48.3835H48.4835V35.078V25.0004V24.9004H48.3835H33.1279ZM49.9786 23.4208V36.6576H31.5329V23.4208H49.9786Z" fill="#F03145" stroke="#2E2E2E" stroke-width="0.2"/>
<path d="M34.9233 26.7799H46.5887V28.2594H34.9233V26.7799Z" fill="#F03145" stroke="#2E2E2E" stroke-width="0.2"/>
<path d="M34.9233 30.1391H46.5887V31.619H34.9233V30.1391Z" fill="#F03145" stroke="#2E2E2E" stroke-width="0.2"/>
<path d="M38.2134 7.26468H38.1134V7.36468V9.40185L28.9159 4.84529L38.1134 0.288344V2.32592V2.42592H38.2134H49.1313V3.9055H36.6183V2.84464V2.68349L36.4739 2.75503L32.4362 4.75569L32.2553 4.84531L32.4362 4.93491L36.4739 6.93516L36.6183 7.00669V6.84555V5.78509H52.5214V7.26468H38.2134Z" fill="#F03145" stroke="#2E2E2E" stroke-width="0.2"/>
<path d="M43.2983 44.4152H43.3983V44.3152V42.2776L52.5958 46.8347L43.3983 51.3913V49.3541V49.2541H43.2983H34.923V47.7745H44.8934V48.835V48.9961L45.0377 48.9246L49.0755 46.9243L49.2564 46.8347L49.0755 46.7451L45.0378 44.7444L44.8934 44.6728V44.834V45.8949H31.5329V44.4152H43.2983Z" fill="#F03145" stroke="#2E2E2E" stroke-width="0.2"/>
</svg>
